<?xml version="1.0" standalone="no"?><!DOCTYPE svg PUBLIC "-//W3C//DTD SVG 1.1//EN" "http://www.w3.org/Graphics/SVG/1.1/DTD/svg11.dtd"><svg t="1742354506481" class="icon" viewBox="0 0 1024 1024" version="1.1" xmlns="http://www.w3.org/2000/svg" p-id="10432" xmlns:xlink="http://www.w3.org/1999/xlink" width="200" height="200"><path d="M170.666667 512m85.333333 0l213.333333 0q85.333333 0 85.333334 85.333333l0 170.666667q0 85.333333-85.333334 85.333333l-213.333333 0q-85.333333 0-85.333333-85.333333l0-170.666667q0-85.333333 85.333333-85.333333Z" fill="#94BEFB" p-id="10433"></path><path d="M384 170.666667h426.666667a85.333333 85.333333 0 0 1 85.333333 85.333333v512a85.333333 85.333333 0 0 1-85.333333 85.333333H298.666667V256a85.333333 85.333333 0 0 1 85.333333-85.333333z" fill="#225BF6" p-id="10434"></path><path d="M512 384h170.666667a42.666667 42.666667 0 0 1 42.666666 42.666667 42.666667 42.666667 0 0 1-42.666666 42.666666h-170.666667a42.666667 42.666667 0 0 1-42.666667-42.666666 42.666667 42.666667 0 0 1 42.666667-42.666667z" fill="#FFFFFF" p-id="10435"></path><path d="M512 554.666667h170.666667a42.666667 42.666667 0 0 1 42.666666 42.666666 42.666667 42.666667 0 0 1-42.666666 42.666667h-170.666667a42.666667 42.666667 0 0 1-42.666667-42.666667 42.666667 42.666667 0 0 1 42.666667-42.666666z" fill="#FFFFFF" p-id="10436"></path></svg>